<?xml version="1.0" encoding="UTF-8" standalone="no"?><!DOCTYPE svg PUBLIC "-//W3C//DTD SVG 1.1//EN" "http://www.w3.org/Graphics/SVG/1.1/DTD/svg11.dtd"><svg width="100%" height="100%" viewBox="0 0 500 500" version="1.1" xmlns="http://www.w3.org/2000/svg" xmlns:xlink="http://www.w3.org/1999/xlink" xml:space="preserve" xmlns:serif="http://www.serif.com/" style="fill-rule:evenodd;clip-rule:evenodd;stroke-linejoin:round;stroke-miterlimit:2;"><g id="Badge"><path id="Circle" d="M487.766,152.36c-0,-13.261 -5.268,-25.979 -14.645,-35.356c-22.747,-22.747 -66.314,-66.314 -89.061,-89.061c-9.377,-9.377 -22.095,-14.645 -35.356,-14.645l-197.408,-0c-13.261,-0 -25.979,5.268 -35.356,14.645c-22.747,22.747 -66.314,66.314 -89.061,89.061c-9.377,9.377 -14.645,22.095 -14.645,35.356l0,195.28c0,13.261 5.268,25.979 14.645,35.356c22.747,22.747 66.314,66.314 89.061,89.061c9.377,9.377 22.095,14.645 35.356,14.645l197.408,0c13.261,0 25.979,-5.268 35.356,-14.645c22.747,-22.747 66.314,-66.314 89.061,-89.061c9.377,-9.377 14.645,-22.095 14.645,-35.356l-0,-195.28Z" style="fill:url(#_Linear1);"/><path d="M324.468,147.34l0,205.32c0,41.1 -33.368,74.468 -74.468,74.468c-41.1,-0 -74.468,-33.368 -74.468,-74.468l-0,-205.32c-0,-41.1 33.368,-74.468 74.468,-74.468c41.1,0 74.468,33.368 74.468,74.468Zm-74.468,175.494c-15.339,0 -27.793,12.453 -27.793,27.793c0,15.339 12.454,27.792 27.793,27.792c15.339,0 27.793,-12.453 27.793,-27.792c-0,-15.34 -12.454,-27.793 -27.793,-27.793Zm0,-100.627c-15.339,0 -27.793,12.454 -27.793,27.793c0,15.339 12.454,27.793 27.793,27.793c15.339,-0 27.793,-12.454 27.793,-27.793c-0,-15.339 -12.454,-27.793 -27.793,-27.793Zm-0,-100.568c-15.339,0 -27.793,12.454 -27.793,27.793c0,15.339 12.454,27.793 27.793,27.793c15.339,-0 27.793,-12.454 27.793,-27.793c-0,-15.339 -12.454,-27.793 -27.793,-27.793Z" style="fill:#fff;"/></g><defs><linearGradient id="_Linear1" x1="0" y1="0" x2="1" y2="0" gradientUnits="userSpaceOnUse" gradientTransform="matrix(2.89877e-14,-473.404,473.404,2.89877e-14,250,486.702)"><stop offset="0" style="stop-color:#ff0b00;stop-opacity:1"/><stop offset="1" style="stop-color:#ff002c;stop-opacity:1"/></linearGradient></defs></svg>