<?xml version="1.0" encoding="UTF-8" standalone="no"?><!DOCTYPE svg PUBLIC "-//W3C//DTD SVG 1.1//EN" "http://www.w3.org/Graphics/SVG/1.1/DTD/svg11.dtd"><svg width="100%" height="100%" viewBox="0 0 500 500" version="1.1" xmlns="http://www.w3.org/2000/svg" xmlns:xlink="http://www.w3.org/1999/xlink" xml:space="preserve" xmlns:serif="http://www.serif.com/" style="fill-rule:evenodd;clip-rule:evenodd;stroke-linejoin:round;stroke-miterlimit:2;"><g><path d="M186.826,358.533c-3.738,-8.597 -10.124,-15.775 -18.226,-20.488c-51.229,-29.619 -85.887,-86.351 -85.887,-151.405c-0,-95.67 74.959,-173.342 167.287,-173.342c92.328,-0 167.287,77.672 167.287,173.342c0,65.054 -34.658,121.786 -85.87,151.434c-8.096,4.71 -14.476,11.883 -18.211,20.473c-11.859,27.19 -37.952,87.204 -52.635,120.976c-1.829,4.208 -5.982,6.931 -10.571,6.931c-4.589,-0 -8.742,-2.723 -10.571,-6.931c-14.683,-33.772 -40.776,-93.786 -52.603,-120.99Z" style="fill:url(#_Linear1);"/></g><path d="M247.207,84.419c0.45,-1.149 1.558,-1.905 2.793,-1.905c1.235,-0 2.343,0.756 2.793,1.905c6.765,17.272 23.473,59.931 23.473,59.931c0,0 50.039,4.997 69.209,6.912c1.215,0.121 2.235,0.967 2.58,2.138c0.345,1.171 -0.055,2.435 -1.011,3.195c-15.098,12.007 -54.544,43.378 -54.544,43.378c-0,0 13.571,46.998 18.92,65.524c0.343,1.187 -0.077,2.463 -1.059,3.214c-0.981,0.751 -2.322,0.824 -3.379,0.184c-16.241,-9.847 -56.982,-34.545 -56.982,-34.545c-0,0 -40.741,24.698 -56.982,34.545c-1.057,0.64 -2.398,0.567 -3.379,-0.184c-0.982,-0.751 -1.402,-2.027 -1.059,-3.214c5.349,-18.526 18.92,-65.524 18.92,-65.524c-0,0 -39.446,-31.371 -54.544,-43.378c-0.956,-0.76 -1.356,-2.024 -1.011,-3.195c0.345,-1.171 1.365,-2.017 2.58,-2.138c19.17,-1.915 69.209,-6.912 69.209,-6.912c-0,0 16.708,-42.659 23.473,-59.931Z" style="fill:#fff;"/><defs><linearGradient id="_Linear1" x1="0" y1="0" x2="1" y2="0" gradientUnits="userSpaceOnUse" gradientTransform="matrix(2.89877e-14,473.404,-473.404,2.89877e-14,250,13.2979)"><stop offset="0" style="stop-color:#4891ce;stop-opacity:1"/><stop offset="1" style="stop-color:#005399;stop-opacity:1"/></linearGradient></defs></svg>