<?xml version="1.0" encoding="UTF-8" standalone="no"?><!DOCTYPE svg PUBLIC "-//W3C//DTD SVG 1.1//EN" "http://www.w3.org/Graphics/SVG/1.1/DTD/svg11.dtd"><svg width="100%" height="100%" viewBox="0 0 358 165" version="1.1" xmlns="http://www.w3.org/2000/svg" xmlns:xlink="http://www.w3.org/1999/xlink" xml:space="preserve" xmlns:serif="http://www.serif.com/" style="fill-rule:evenodd;clip-rule:evenodd;stroke-linejoin:round;stroke-miterlimit:2;"><path d="M335.91,130c-3.946,0.037 -7.828,-1 -11.23,-3c-3.381,-1.971 -6.191,-4.791 -8.15,-8.18c-4.022,-6.962 -4.022,-15.568 0,-22.53c1.966,-3.394 4.773,-6.225 8.15,-8.22c3.399,-2.007 7.283,-3.045 11.23,-3c4.308,-0.079 8.535,1.186 12.09,3.62c3.517,2.438 6.288,5.808 8,9.73l-8.06,2.33c-1.111,-2.24 -2.777,-4.157 -4.84,-5.57c-2.118,-1.426 -4.627,-2.164 -7.18,-2.11c-5.062,-0.069 -9.757,2.704 -12.14,7.17c-1.22,2.238 -1.85,4.751 -1.83,7.3c-0.027,2.54 0.603,5.045 1.83,7.27c1.17,2.156 2.897,3.959 5,5.22c2.156,1.29 4.628,1.955 7.14,1.92c2.518,0.045 4.994,-0.651 7.12,-2c2.052,-1.348 3.687,-3.243 4.72,-5.47l8.18,2.2c-1.681,3.923 -4.459,7.277 -8,9.66c-3.542,2.42 -7.741,3.697 -12.03,3.66Z" style="fill:#fff;fill-rule:nonzero;"/><path d="M158.35,16.56l4.57,5.52l0,38.51l-4.57,0l0,-44.03Zm42.34,-16.17l0,49.79l-40.51,-49.79l-1.83,0l0,5.76l45.09,54.44l1.81,0l0,-60.2l-4.56,0Z" style="fill:#fff;fill-rule:nonzero;"/><path d="M120.87,0.38l0,37.38c0,25.91 -37.13,26 -37.13,-0l0,-37.38l-4.58,-0l-0,37.38c-0,31.69 46.29,31.61 46.29,-0l-0,-37.38l-4.58,-0Z" style="fill:#fff;fill-rule:nonzero;"/><path d="M238.16,4.86l0,-4.47l42.55,-0l0,4.47l-42.55,0Zm0,27.86l42.55,0l0,-4.47l-42.55,0l0,4.47Zm0,27.87l42.55,0l0,-4.47l-42.55,-0l0,4.47Z" style="fill:#fff;fill-rule:nonzero;"/><path d="M6.62,0.38l22.67,35.22l-0,25l-4.66,0l-0,-24.13l-23.46,-36l-0,-0.09l5.45,0Zm40.77,0l-16.23,25.16l2.63,4.08l19.05,-29.15l0,-0.09l-5.45,0Z" style="fill:#fff;fill-rule:nonzero;"/><path d="M350.54,0.39l5.46,0l0,0.08l-42.38,60.12l-5.45,0l0,-0.09l21.15,-30l-21.15,-30.03l0,-0.08l5.45,0l18.46,26.18l18.46,-26.18Zm-11.42,36.18l-2.75,3.91l14.17,20.11l5.46,0l0,-0.09l-16.88,-23.93Z" style="fill:#fff;fill-rule:nonzero;"/><path d="M20.8,93.38l-13.84,0l-0,-7.86l35.62,0l0,7.86l-13.35,0l0,36.19l-8.43,0l0,-36.19Z" style="fill:#fff;fill-rule:nonzero;"/><path d="M62.5,85.52l19.86,0c2.713,-0.046 5.389,0.646 7.74,2c2.268,1.323 4.157,3.212 5.48,5.48c1.323,2.237 2.015,4.791 2,7.39c0.019,1.93 -0.373,3.843 -1.15,5.61c-0.771,1.729 -1.875,3.289 -3.25,4.59c-1.361,1.313 -2.993,2.313 -4.78,2.93l9.82,16l-9.63,0l-9.13,-15l-8.46,0l0,15l-8.5,0l0,-44Zm19.73,21.71c1.9,0.054 3.743,-0.669 5.1,-2c1.365,-1.299 2.121,-3.116 2.08,-5c0.003,-0.077 0.004,-0.155 0.004,-0.232c-0,-3.742 -3.079,-6.82 -6.82,-6.82c-0.061,-0 -0.123,0 -0.184,0.002l-11.41,-0l0,14.1l11.23,-0.05Z" style="fill:#fff;fill-rule:nonzero;"/><path d="M132,85.52l13.1,0l15,44.05l-8.75,0l-3.08,-9.19l-19.6,0l-3.21,9.19l-8.81,0l15.36,-44l-0.01,-0.05Zm13.78,27.18l-7.23,-21.77l-7.43,21.77l14.66,0Z" style="fill:#fff;fill-rule:nonzero;"/><path d="M179.51,85.52l32.16,0l0,7.86l-23.67,0l0,11.92l23.67,0l-0,7.61l-23.67,0l0,16.66l-8.49,0l0,-44.05Z" style="fill:#fff;fill-rule:nonzero;"/><path d="M231.7,85.52l32.16,0l0,7.86l-23.67,0l0,11.92l23.67,0l0,7.61l-23.67,0l0,16.66l-8.49,0l0,-44.05Z" style="fill:#fff;fill-rule:nonzero;"/><rect x="284.44" y="85.52" width="8.49" height="44.05" style="fill:#fff;fill-rule:nonzero;"/><g transform="matrix(24,0,0,24,342.205,163.744)"></g><text x="14.965px" y="163.744px" style="font-family:'Montserrat-Bold', 'Montserrat';font-weight:700;font-size:24px;fill:#3eeb92;">CENTRAL DE MONIT<tspan x="267.949px " y="163.744px ">O</tspan>REO</text></svg>