<?xml version="1.0" encoding="UTF-8" standalone="no"?><!DOCTYPE svg PUBLIC "-//W3C//DTD SVG 1.1//EN" "http://www.w3.org/Graphics/SVG/1.1/DTD/svg11.dtd"><svg width="100%" height="100%" viewBox="0 0 500 500" version="1.1" xmlns="http://www.w3.org/2000/svg" xmlns:xlink="http://www.w3.org/1999/xlink" xml:space="preserve" xmlns:serif="http://www.serif.com/" style="fill-rule:evenodd;clip-rule:evenodd;stroke-linejoin:round;stroke-miterlimit:2;"><g id="Badge"><path id="Circle" d="M487.766,250c-0,-130.639 -106.063,-236.702 -236.702,-236.702l-2.128,-0c-130.639,-0 -236.702,106.063 -236.702,236.702c0,130.639 106.063,236.702 236.702,236.702l2.128,0c130.639,0 236.702,-106.063 236.702,-236.702Z" style="fill:url(#_Linear1);"/><path d="M324.468,147.34l0,205.32c0,41.1 -33.368,74.468 -74.468,74.468c-41.1,-0 -74.468,-33.368 -74.468,-74.468l-0,-205.32c-0,-41.1 33.368,-74.468 74.468,-74.468c41.1,0 74.468,33.368 74.468,74.468Zm-74.468,175.494c-15.339,0 -27.793,12.453 -27.793,27.793c0,15.339 12.454,27.792 27.793,27.792c15.339,0 27.793,-12.453 27.793,-27.792c-0,-15.34 -12.454,-27.793 -27.793,-27.793Zm0,-100.627c-15.339,0 -27.793,12.454 -27.793,27.793c0,15.339 12.454,27.793 27.793,27.793c15.339,-0 27.793,-12.454 27.793,-27.793c-0,-15.339 -12.454,-27.793 -27.793,-27.793Zm-0,-100.568c-15.339,0 -27.793,12.454 -27.793,27.793c0,15.339 12.454,27.793 27.793,27.793c15.339,-0 27.793,-12.454 27.793,-27.793c-0,-15.339 -12.454,-27.793 -27.793,-27.793Z" style="fill:#fff;"/></g><defs><linearGradient id="_Linear1" x1="0" y1="0" x2="1" y2="0" gradientUnits="userSpaceOnUse" gradientTransform="matrix(2.89877e-14,-473.404,473.404,2.89877e-14,250,486.702)"><stop offset="0" style="stop-color:#00ff75;stop-opacity:1"/><stop offset="1" style="stop-color:#00ffb0;stop-opacity:1"/></linearGradient></defs></svg>