<?xml version="1.0" encoding="UTF-8" standalone="no"?><!DOCTYPE svg PUBLIC "-//W3C//DTD SVG 1.1//EN" "http://www.w3.org/Graphics/SVG/1.1/DTD/svg11.dtd"><svg width="100%" height="100%" viewBox="0 0 500 500" version="1.1" xmlns="http://www.w3.org/2000/svg" xmlns:xlink="http://www.w3.org/1999/xlink" xml:space="preserve" xmlns:serif="http://www.serif.com/" style="fill-rule:evenodd;clip-rule:evenodd;stroke-linejoin:round;stroke-miterlimit:2;"><g id="Badge"><path d="M254.468,22.194c-0.848,-1.689 -2.577,-2.756 -4.468,-2.756c-1.891,0 -3.62,1.067 -4.468,2.756c-30.055,59.84 -202.377,402.942 -229.66,457.264c-0.778,1.55 -0.698,3.393 0.213,4.869c0.91,1.476 2.521,2.375 4.255,2.375c57.405,0 401.915,0 459.32,0c1.734,0 3.345,-0.899 4.255,-2.375c0.911,-1.476 0.991,-3.319 0.213,-4.869c-27.283,-54.322 -199.605,-397.424 -229.66,-457.264Z" style="fill:url(#_Linear1);"/><path d="M315.791,210.302l0,181.396c0,36.311 -29.48,65.792 -65.791,65.792c-36.311,-0 -65.791,-29.481 -65.791,-65.792l-0,-181.396c-0,-36.311 29.48,-65.792 65.791,-65.792c36.311,0 65.791,29.481 65.791,65.792Zm-65.791,155.046c-13.552,-0 -24.554,11.002 -24.554,24.554c-0,13.552 11.002,24.554 24.554,24.554c13.552,0 24.554,-11.002 24.554,-24.554c0,-13.552 -11.002,-24.554 -24.554,-24.554Zm0,-88.902c-13.552,-0 -24.554,11.002 -24.554,24.554c-0,13.552 11.002,24.554 24.554,24.554c13.552,0 24.554,-11.002 24.554,-24.554c0,-13.552 -11.002,-24.554 -24.554,-24.554Zm0,-88.851c-13.552,0 -24.554,11.003 -24.554,24.555c-0,13.552 11.002,24.554 24.554,24.554c13.552,0 24.554,-11.002 24.554,-24.554c0,-13.552 -11.002,-24.555 -24.554,-24.555Z" style="fill:#fff;"/></g><defs><linearGradient id="_Linear1" x1="0" y1="0" x2="1" y2="0" gradientUnits="userSpaceOnUse" gradientTransform="matrix(-8.6963e-14,-473.404,-473.404,8.6963e-14,250,486.702)"><stop offset="0" style="stop-color:#ff6900;stop-opacity:1"/><stop offset="1" style="stop-color:#ffb000;stop-opacity:1"/></linearGradient></defs></svg>